{"glyphs":{":":{"x_min":0,"x_max":315,"ha":315,"o":"m 81 -9 q 56 -9 39 8 q 21 25 21 49 q 21 73 39 91 q 58 109 81 109 q 105 109 123 91 q 140 74 140 50 q 140 24 124 8 q 107 -9 81 -9 z m 149 238 q 125 238 107 255 q 90 272 90 296 q 90 320 108 338 q 125 356 149 356 q 173 356 191 339 q 208 322 208 298 q 208 272 191 255 q 175 238 149 238 z"},"$":{"x_min":0,"x_max":583,"ha":583,"o":"m 267 432 q 291 424 336 405 q 345 401 349 399 l 404 608 q 383 618 363 625 q 342 632 319 637 z m 242 447 l 293 641 q 282 642 277 643 q 271 643 268 643 q 220 643 188 616 q 157 589 157 547 q 157 515 176 492 q 195 470 242 447 z m 346 277 l 284 42 q 287 42 293 42 q 311 40 317 40 q 377 40 416 73 q 454 106 454 157 q 454 195 426 227 q 397 259 346 277 z m 176 83 q 193 75 213 66 q 234 57 257 48 l 320 290 q 297 301 246 320 l 239 323 z m 155 3 l 118 -127 q 118 -128 117 -130 q 112 -150 100 -150 q 95 -150 92 -146 q 88 -142 88 -137 q 88 -133 88 -130 q 89 -127 90 -123 l 128 10 q 68 36 36 66 q 4 95 4 125 q 4 161 29 210 q 55 259 68 259 q 71 259 74 256 q 76 252 76 248 q 76 245 71 231 q 66 218 66 207 q 66 182 88 154 q 109 127 151 100 l 213 336 q 156 357 129 394 q 102 430 102 485 q 102 562 156 616 q 211 670 304 684 q 317 728 325 767 q 333 807 337 843 l 385 843 q 372 812 359 773 q 346 734 334 687 q 361 686 382 684 q 403 682 422 679 q 434 718 443 759 q 452 800 458 843 l 503 843 q 487 802 474 760 q 461 717 450 672 q 496 657 523 635 q 550 613 550 590 q 550 581 543 560 q 537 538 525 513 l 524 510 q 508 474 495 474 q 491 474 489 477 q 487 480 487 486 q 487 490 490 503 q 492 516 492 524 q 492 541 475 559 q 458 578 427 596 l 374 390 q 442 363 474 323 q 506 282 506 224 q 506 129 442 65 q 377 1 271 -7 l 239 -127 q 238 -129 238 -132 q 233 -150 222 -150 q 218 -150 214 -146 q 210 -142 210 -138 q 210 -134 210 -130 q 211 -126 212 -123 l 242 -8 q 239 -8 235 -8 q 230 -9 228 -9 q 212 -9 195 -6 q 178 -3 155 3 z"},"?":{"x_min":0,"x_max":500,"ha":500,"o":"m 462 549 q 462 463 287 337 l 278 331 q 218 288 202 269 q 186 249 186 230 q 186 218 195 202 q 203 186 203 182 q 203 179 201 177 q 198 174 195 174 q 183 174 163 210 q 144 247 144 281 q 144 338 260 423 l 262 425 q 276 436 303 455 q 425 544 425 590 q 425 626 398 650 q 371 674 328 674 q 270 674 213 633 q 156 592 156 547 q 156 536 161 522 q 166 508 166 506 q 166 502 164 500 q 162 497 158 497 q 145 497 128 532 q 112 566 112 600 q 112 652 157 688 q 203 723 272 723 q 354 723 408 673 q 462 624 462 549 z m 155 -9 q 130 -9 113 8 q 95 25 95 49 q 95 73 113 91 q 131 109 155 109 q 179 109 197 91 q 214 74 214 50 q 214 24 197 8 q 181 -9 155 -9 z"},"<":{"x_min":0,"x_max":833,"ha":833,"o":"m 704 566 l 704 491 l 231 298 l 704 106 l 704 31 l 129 267 l 129 330 z"},"'":{"x_min":0,"x_max":172,"ha":172,"o":"m 95 420 l 78 420 l 44 644 q 44 645 43 648 q 42 658 42 662 q 42 687 53 700 q 65 714 86 714 q 106 714 118 701 q 130 688 130 664 q 130 661 130 657 q 129 653 128 644 z"},"=":{"x_min":0,"x_max":833,"ha":833,"o":"m 124 235 l 709 235 l 709 167 l 124 167 z m 124 429 l 709 429 l 709 361 l 124 361 z"},"a":{"x_min":0,"x_max":509,"ha":509,"o":"m 318 295 q 285 309 258 315 q 232 322 211 322 q 160 322 125 261 q 90 200 90 114 q 90 80 102 62 q 114 45 138 45 q 180 45 227 110 q 273 174 318 295 z m 428 335 l 382 203 q 365 156 355 113 q 344 69 344 56 q 344 45 347 40 q 349 35 354 35 q 369 35 394 62 q 419 89 425 89 q 428 89 431 87 q 433 85 433 83 q 433 65 388 25 q 343 -14 305 -14 q 281 -14 268 -1 q 254 11 254 33 q 254 62 260 91 q 265 119 276 148 q 222 55 180 20 q 139 -14 86 -14 q 38 -14 10 16 q -17 46 -17 100 q -17 207 74 285 q 165 363 288 363 q 319 363 353 356 q 388 349 428 335 z"},"L":{"x_min":0,"x_max":601,"ha":601,"o":"m 67 35 q 83 86 95 131 q 108 175 116 209 l 189 509 q 193 524 200 557 q 207 591 223 669 q 219 669 209 671 q 112 685 112 700 q 112 706 116 708 q 120 711 129 711 q 132 711 146 709 q 215 700 285 700 q 346 700 412 709 q 429 711 433 711 q 441 711 446 708 q 451 705 451 701 q 451 686 348 669 l 344 669 q 325 607 313 566 q 302 525 294 494 l 222 195 q 216 168 207 126 q 198 84 188 35 q 213 31 233 30 q 253 28 269 28 q 334 28 396 44 q 458 60 512 91 l 533 142 q 538 153 542 158 q 546 162 552 162 q 555 162 556 160 q 558 159 558 155 q 558 150 542 106 q 526 61 516 18 q 510 -7 505 -43 q 500 -80 491 -80 q 487 -80 484 -76 q 481 -71 481 -64 q 481 -57 482 -42 l 484 -18 q 426 -7 345 -2 q 263 3 152 3 l 107 3 q 68 3 25 -2 q -18 -7 -22 -7 q -30 -7 -35 -4 q -40 -2 -40 2 q -40 11 -22 18 q -4 24 67 35 z"},"3":{"x_min":0,"x_max":583,"ha":583,"o":"m 420 410 q 467 392 490 361 q 513 330 513 284 q 513 229 483 174 q 453 118 398 71 q 345 26 286 4 q 228 -19 164 -19 q 82 -19 35 10 q -11 39 -11 89 q -11 106 -2 138 q 8 170 24 207 q 33 226 38 232 q 43 239 49 239 q 54 239 57 237 q 59 234 59 229 q 59 224 49 197 q 38 170 38 152 q 38 108 107 74 q 176 40 265 40 q 341 40 383 90 q 425 140 425 231 q 425 285 383 316 q 340 347 266 347 q 230 347 195 337 q 160 327 159 327 q 155 327 153 330 q 150 333 150 336 q 150 355 215 390 q 280 424 347 424 q 358 424 370 423 q 383 421 398 419 q 432 444 451 472 q 469 500 469 528 q 469 575 435 603 q 401 631 345 631 q 300 631 268 617 q 235 603 200 567 q 193 560 182 547 q 164 526 154 526 q 149 526 147 528 q 144 529 144 532 q 144 542 157 560 q 169 578 193 602 q 238 648 288 671 q 338 694 392 694 q 466 694 508 662 q 549 629 549 571 q 549 530 518 491 q 486 452 420 410 z"},";":{"x_min":0,"x_max":315,"ha":315,"o":"m 114 101 q 128 101 134 96 q 140 91 140 81 q 140 69 123 34 q 105 -1 78 -41 q 41 -94 10 -129 q -21 -164 -30 -164 q -33 -164 -36 -161 q -39 -158 -39 -154 q -39 -153 -18 -115 q 2 -77 16 -35 q 29 5 34 53 q 40 101 58 101 l 74 101 z m 149 238 q 125 238 107 255 q 90 272 90 296 q 90 320 108 338 q 125 356 149 356 q 173 356 191 339 q 208 322 208 298 q 208 272 191 255 q 175 238 149 238 z"},"J":{"x_min":0,"x_max":389,"ha":389,"o":"m 222 221 l 222 219 q 158 -46 62 -116 q 12 -152 -49 -178 q -110 -203 -135 -203 q -141 -203 -145 -200 q -149 -198 -149 -194 q -149 -186 -118 -177 q -88 -168 -62 -154 q 36 -99 113 221 l 116 234 l 183 509 q 186 518 197 575 q 208 631 216 669 l 204 671 q 106 685 106 700 q 106 706 110 708 q 113 711 123 711 q 126 711 140 709 q 209 700 279 700 q 339 700 406 709 q 423 711 427 711 q 435 711 439 708 q 444 706 444 701 q 444 686 342 670 l 337 669 q 322 622 310 578 q 297 533 288 494 z"},"V":{"x_min":0,"x_max":713,"ha":713,"o":"m 138 669 q 129 671 114 674 q 46 687 46 700 q 46 706 50 708 q 53 711 63 711 q 63 711 109 706 q 155 700 200 700 q 261 700 328 709 q 344 711 348 711 q 356 711 360 708 q 365 706 365 701 q 365 691 342 684 q 318 677 248 669 l 319 119 q 426 274 506 415 q 586 556 632 669 q 567 676 546 683 q 525 689 525 700 q 525 706 528 708 q 531 711 539 711 q 542 711 555 709 q 612 700 667 700 q 721 700 779 709 q 792 711 795 711 q 801 711 805 708 q 809 705 809 701 q 809 692 791 684 q 773 677 731 669 q 705 641 677 604 q 649 567 599 493 l 259 -13 q 254 -20 251 -23 q 247 -27 244 -27 q 242 -27 239 -22 q 237 -18 236 -11 z"},"\"":{"x_min":0,"x_max":335,"ha":335,"o":"m 257 420 l 240 420 l 206 644 q 206 647 205 651 q 205 655 205 662 q 205 687 216 700 q 227 714 248 714 q 269 714 280 701 q 292 688 292 664 q 292 656 292 652 q 292 648 291 644 z m 95 420 l 78 420 l 44 644 q 43 652 42 657 q 42 661 42 664 q 42 688 54 701 q 65 714 86 714 q 107 714 119 700 q 130 687 130 662 q 130 654 130 651 q 129 647 129 644 z"},"7":{"x_min":0,"x_max":583,"ha":583,"o":"m 250 34 l 262 32 q 357 18 357 4 q 357 -1 353 -3 q 349 -6 341 -6 q 337 -6 323 -4 q 254 4 187 4 q 121 4 52 -4 q 38 -6 34 -6 q 26 -6 21 -4 q 17 -2 17 2 q 17 12 39 18 q 60 25 126 34 q 178 152 272 286 q 367 420 529 603 q 495 590 465 585 q 436 579 406 579 q 366 579 306 590 q 246 600 224 600 q 194 600 175 592 q 155 583 139 563 q 130 552 123 536 q 116 519 111 519 q 109 519 106 523 q 104 526 104 530 q 104 541 112 564 q 119 587 131 609 q 157 658 182 676 q 207 694 248 694 q 300 694 384 667 q 467 640 503 640 q 553 640 597 667 q 606 673 609 673 q 613 673 616 671 q 619 669 619 666 q 619 658 574 612 q 529 566 492 518 q 400 398 338 273 q 276 148 250 34 z"},"S":{"x_min":0,"x_max":639,"ha":639,"o":"m 40 37 l 16 -16 q 11 -28 5 -34 q 0 -41 -5 -41 q -8 -41 -10 -38 q -12 -36 -12 -31 q -12 -29 8 31 q 29 90 46 153 q 59 199 67 250 q 75 302 83 302 q 87 302 89 298 q 91 295 91 287 q 91 280 91 276 q 90 272 90 268 l 79 162 q 124 97 189 59 q 255 21 323 21 q 396 21 439 54 q 481 87 481 144 q 481 226 318 290 q 288 301 272 308 q 190 342 155 387 q 119 432 119 501 q 119 598 189 660 q 259 723 370 723 q 419 723 472 711 q 524 698 579 674 l 609 734 q 611 737 613 743 q 622 759 628 759 q 631 759 634 756 q 636 754 636 750 q 636 749 617 701 q 597 653 580 603 q 567 566 560 525 q 553 484 544 484 q 540 484 539 488 q 537 492 537 504 q 537 506 537 508 q 538 510 538 512 l 546 572 q 494 628 438 656 q 381 685 324 685 q 258 685 216 650 q 174 614 174 559 q 174 479 342 414 q 362 405 373 401 q 470 362 508 318 q 547 274 547 208 q 547 112 470 47 q 394 -17 276 -17 q 217 -17 160 -4 q 102 9 40 37 z"},"}":{"x_min":0,"x_max":500,"ha":500,"o":"m 86 740 l 91 740 q 198 740 239 704 q 279 668 279 571 l 279 470 q 279 392 307 362 q 335 333 414 326 l 414 295 q 335 289 307 259 q 279 229 279 151 l 279 50 q 279 -47 239 -83 q 198 -119 91 -119 l 86 -119 l 86 -93 q 153 -92 177 -67 q 201 -41 201 35 l 201 104 q 201 215 230 255 q 258 294 336 310 q 259 326 230 365 q 201 405 201 516 l 201 585 q 201 662 177 688 q 152 713 86 714 z"},"Z":{"x_min":0,"x_max":669,"ha":669,"o":"m 133 35 q 167 34 197 33 q 226 32 248 32 q 335 32 403 42 q 470 53 524 74 l 558 162 q 562 172 566 177 q 571 183 577 183 q 580 183 581 181 q 583 178 583 175 q 583 170 567 125 q 551 80 541 38 q 535 13 530 -22 q 524 -59 516 -59 q 511 -59 508 -54 q 506 -48 506 -37 q 506 -30 506 -26 q 506 -22 507 -18 q 446 -8 376 -2 q 307 3 230 3 l 94 3 q 59 3 18 -1 q 6 -2 3 -2 q -7 -2 -10 0 q -13 3 -13 10 q -13 11 -11 15 q -9 18 -6 22 l 525 668 q 500 669 475 670 q 451 671 428 671 q 342 671 276 661 q 210 651 158 630 l 123 541 q 120 531 115 526 q 110 521 104 521 q 102 521 101 523 q 99 525 99 529 q 99 534 115 579 q 130 623 140 665 q 146 690 151 726 q 156 763 165 763 q 171 763 173 758 q 176 753 176 742 q 176 735 176 730 q 175 726 175 721 q 233 711 302 706 q 372 701 451 701 l 564 701 q 602 701 643 704 q 653 705 655 705 q 665 705 668 703 q 671 701 671 694 q 671 692 669 688 q 667 685 664 681 z"},"x":{"x_min":0,"x_max":456,"ha":456,"o":"m 163 128 l 121 66 q 89 20 65 3 q 40 -14 9 -14 q -17 -14 -33 1 q -49 16 -49 39 q -49 66 -27 84 q -6 102 26 102 q 43 102 60 95 q 78 88 96 75 q 109 90 124 109 q 138 129 153 153 l 118 233 q 104 266 92 281 q 80 297 70 297 q 50 297 32 268 q 14 239 9 239 q 6 239 5 240 q 3 242 3 245 q 3 274 42 319 q 82 364 122 364 q 144 364 158 353 q 172 342 183 316 l 215 242 l 247 285 q 280 331 305 347 q 331 364 362 364 q 388 364 404 349 q 420 335 420 311 q 420 284 399 266 q 377 248 345 248 q 327 248 310 255 q 292 262 274 278 q 259 262 247 248 q 236 233 225 218 l 277 103 q 286 83 296 72 q 305 62 315 62 q 329 62 348 90 q 367 117 374 117 q 377 117 379 115 q 381 112 381 108 q 381 103 370 83 q 360 62 345 43 q 323 14 303 0 q 283 -14 264 -14 q 242 -14 225 4 q 209 22 185 78 z"},")":{"x_min":0,"x_max":319,"ha":319,"o":"m -115 -165 q -115 -162 -78 -126 q -41 -90 -10 -49 q 81 71 128 212 q 176 354 176 502 q 176 594 148 694 q 144 710 144 713 q 144 718 146 720 q 147 722 151 722 q 157 722 163 713 q 169 704 178 683 q 215 598 231 527 q 248 457 248 387 q 248 271 189 151 q 129 32 18 -77 q -24 -118 -60 -145 q -96 -172 -107 -172 q -110 -172 -113 -170 q -115 -168 -115 -165 z"},"&":{"x_min":0,"x_max":718,"ha":718,"o":"m 551 280 q 561 250 565 230 q 570 209 570 193 q 570 104 500 43 q 431 -19 327 -19 q 195 -19 110 51 q 26 121 26 229 q 26 331 94 402 q 163 472 263 472 q 266 472 277 471 q 289 470 296 470 q 274 496 262 526 q 250 557 250 588 q 250 647 290 685 q 330 722 390 722 q 458 722 506 681 q 555 639 555 598 q 555 590 553 589 q 552 587 547 587 q 542 587 530 602 q 485 656 422 656 q 374 656 342 623 q 311 590 311 538 q 311 521 316 502 q 321 483 331 462 q 375 444 401 426 q 427 408 427 396 q 427 391 425 388 q 423 385 420 385 q 417 385 404 391 q 357 412 319 412 q 241 412 186 353 q 131 293 131 208 q 131 118 189 62 q 247 7 342 7 q 431 7 489 57 q 546 107 546 183 q 546 206 542 227 q 537 249 528 270 q 456 242 423 220 q 391 198 372 169 q 361 151 354 129 q 346 106 341 106 q 336 106 333 112 q 331 118 331 133 q 331 213 381 263 q 432 312 597 371 q 653 391 672 405 q 691 419 694 439 q 693 439 691 438 q 674 435 668 435 q 642 435 627 448 q 612 460 612 483 q 612 505 626 519 q 641 532 664 532 q 690 532 706 514 q 721 497 721 467 q 721 410 679 363 q 636 316 551 280 z"},"_":{"x_min":0,"x_max":500,"ha":500,"o":"m 0 -166 l 500 -166 l 500 -236 l 0 -236 z"},"v":{"x_min":0,"x_max":426,"ha":426,"o":"m 319 220 q 283 229 265 251 q 246 273 246 307 q 246 332 260 347 q 273 362 294 362 q 322 362 341 338 q 360 313 360 277 q 360 163 285 74 q 211 -14 114 -14 q 73 -14 49 7 q 26 28 26 66 q 26 84 39 129 l 39 131 l 75 255 q 81 273 82 281 q 84 290 84 297 q 84 306 82 311 q 80 316 75 316 q 64 316 41 296 q 19 277 14 277 q 11 277 9 279 q 7 280 7 283 q 7 302 55 333 q 103 364 144 364 q 168 364 179 355 q 189 347 189 326 q 189 323 187 314 q 185 306 182 295 l 137 132 q 134 121 132 112 q 131 103 131 96 q 131 71 145 59 q 159 47 187 47 q 215 47 239 62 q 262 77 284 109 q 301 133 310 161 q 318 188 319 220 z"},"O":{"x_min":0,"x_max":850,"ha":850,"o":"m 359 4 q 502 4 594 133 q 687 262 687 465 q 687 582 637 641 q 587 700 488 700 q 346 700 252 572 q 159 443 159 244 q 159 123 209 63 q 258 4 359 4 z m 355 -19 q 208 -19 124 62 q 39 143 39 283 q 39 363 72 441 q 104 518 165 581 q 231 648 317 685 q 402 722 493 722 q 639 722 724 642 q 809 561 809 423 q 809 341 777 262 q 744 184 684 122 q 619 55 533 18 q 446 -19 355 -19 z"},"(":{"x_min":0,"x_max":319,"ha":319,"o":"m 406 715 q 406 711 369 676 q 333 640 302 599 q 211 479 163 338 q 115 196 115 48 q 115 -46 143 -145 q 147 -159 147 -161 q 147 -166 145 -168 q 144 -171 140 -171 q 135 -171 129 -163 q 124 -155 114 -132 q 78 -48 60 24 q 43 96 43 164 q 43 279 103 400 q 162 520 273 628 q 315 670 351 697 q 387 723 398 723 q 401 723 403 720 q 406 718 406 715 z"},"C":{"x_min":0,"x_max":699,"ha":699,"o":"m 702 663 l 724 710 q 735 733 741 741 q 748 749 753 749 q 755 749 757 746 q 759 744 759 740 q 759 738 735 678 q 710 618 691 553 q 680 518 669 472 q 660 431 651 431 q 647 431 645 435 q 642 438 642 445 q 642 446 643 448 q 643 450 643 451 l 660 554 q 633 621 581 658 q 529 696 465 696 q 417 696 369 673 q 322 651 283 609 q 226 548 194 458 q 161 368 161 270 q 161 157 226 85 q 291 14 393 14 q 478 14 562 77 q 583 92 589 92 q 592 92 594 90 q 596 87 596 83 q 596 60 517 21 q 438 -19 347 -19 q 212 -19 126 66 q 39 151 39 284 q 39 380 85 469 q 131 558 216 624 q 277 671 349 697 q 421 722 494 722 q 550 722 602 707 q 653 692 702 663 z"},"W":{"x_min":0,"x_max":936,"ha":936,"o":"m 901 700 q 955 700 1012 709 q 1025 711 1028 711 q 1034 711 1039 708 q 1043 705 1043 701 q 1043 692 1025 685 q 1007 677 964 669 q 917 619 838 501 l 833 493 l 493 -13 q 488 -20 485 -23 q 481 -27 478 -27 q 476 -27 473 -22 q 471 -18 470 -11 l 431 259 l 259 -13 q 254 -20 251 -23 q 247 -27 245 -27 q 242 -27 240 -23 q 238 -19 236 -11 l 138 669 q 129 671 114 674 q 46 687 46 700 q 46 706 50 708 q 53 711 63 711 q 63 711 109 706 q 154 700 200 700 l 355 700 q 430 700 503 709 q 515 711 518 711 q 526 711 531 708 q 535 705 535 701 q 535 694 522 687 q 510 680 478 669 l 511 411 q 572 524 597 576 q 622 628 636 669 q 626 672 610 677 q 572 689 572 700 q 572 706 575 708 q 579 711 587 711 q 590 711 603 709 q 660 700 713 700 z m 314 113 l 423 300 l 372 669 q 352 672 336 673 q 319 675 307 675 q 297 675 282 673 q 267 672 245 669 z m 516 369 l 549 113 q 656 269 737 411 q 818 553 866 669 q 844 672 826 673 q 807 675 792 675 q 784 675 769 673 q 754 672 731 669 q 704 640 676 603 q 647 565 599 493 z"},"A":{"x_min":0,"x_max":667,"ha":667,"o":"m 184 254 l 397 254 q 392 322 384 396 q 376 470 365 550 q 344 516 303 449 q 222 317 184 254 z m 171 228 q 140 177 116 129 q 93 81 78 35 q 152 25 171 20 q 190 14 190 4 q 190 -2 186 -4 q 183 -7 173 -7 q 170 -7 126 -2 q 82 3 41 3 q -1 3 -45 -2 q -90 -7 -93 -7 q -101 -7 -105 -5 q -110 -2 -110 2 q -110 17 -20 33 l -8 35 q 66 128 157 263 q 247 398 349 569 l 400 653 q 413 675 429 705 q 445 735 452 735 q 456 735 458 731 q 460 728 460 721 l 460 707 l 461 669 q 461 642 469 550 q 476 459 489 352 l 527 35 q 535 34 549 31 q 626 18 626 4 q 626 -2 623 -4 q 619 -7 610 -7 q 606 -7 591 -5 q 525 3 464 3 q 400 3 334 -5 q 319 -7 316 -7 q 308 -7 303 -5 q 299 -2 299 2 q 299 13 322 20 q 344 27 412 35 q 411 81 407 129 q 404 178 400 228 z"},"f":{"x_min":0,"x_max":280,"ha":280,"o":"m 178 350 l 195 350 q 214 350 236 351 q 258 353 284 355 l 270 314 q 245 318 220 320 q 196 322 171 322 l 147 191 q 111 0 46 -116 q -19 -232 -87 -232 q -109 -232 -123 -220 q -136 -208 -136 -189 q -136 -163 -117 -145 q -98 -128 -69 -128 q -56 -128 -40 -133 q -25 -139 -7 -149 q 0 -126 10 -66 q 13 -46 15 -36 l 77 322 q 58 321 38 319 q 19 317 -1 313 l 9 355 q 21 353 33 351 q 46 350 64 350 l 81 350 l 105 469 q 142 650 211 752 q 279 853 364 853 q 388 853 402 842 q 416 830 416 811 q 416 785 397 768 q 378 752 348 752 q 331 752 313 760 q 295 768 274 785 q 260 767 246 715 q 232 664 213 552 z"},"Q":{"x_min":0,"x_max":850,"ha":850,"o":"m 310 -62 q 370 -77 473 -110 q 577 -144 614 -144 q 643 -144 670 -124 q 698 -104 700 -104 q 704 -104 705 -106 q 707 -109 707 -113 q 707 -135 650 -171 q 594 -207 526 -207 q 469 -207 315 -158 l 306 -155 q 292 -150 264 -141 q 171 -109 135 -109 q 114 -109 93 -114 q 72 -119 70 -119 q 69 -119 67 -117 q 66 -115 66 -112 q 66 -95 119 -75 q 172 -54 234 -54 q 250 -54 260 -55 q 270 -55 278 -56 l 364 -19 l 359 -19 q 210 -19 125 62 q 39 144 39 283 q 39 364 72 441 q 104 519 165 581 q 230 648 316 685 q 402 722 493 722 q 639 722 724 642 q 809 561 809 423 q 809 311 750 209 q 690 107 591 49 q 540 20 442 -14 q 344 -48 310 -62 z m 359 4 q 502 4 594 133 q 687 262 687 465 q 687 582 637 641 q 587 700 488 700 q 346 700 252 572 q 159 443 159 244 q 159 123 209 63 q 258 4 359 4 z"},"w":{"x_min":0,"x_max":661,"ha":661,"o":"m 554 220 q 519 229 500 251 q 481 273 481 307 q 481 332 494 347 q 507 362 528 362 q 556 362 575 338 q 594 313 594 277 q 594 165 521 75 q 447 -14 358 -14 q 315 -14 293 10 q 270 34 270 79 q 270 89 272 107 q 274 124 280 160 q 235 71 190 28 q 146 -14 96 -14 q 64 -14 45 7 q 26 29 26 64 q 26 78 29 95 q 32 113 38 131 l 79 255 q 84 269 86 279 q 88 289 88 297 q 88 306 85 311 q 83 316 78 316 q 67 316 45 296 q 22 277 18 277 q 16 277 13 279 q 11 280 11 283 q 11 302 59 333 q 107 364 148 364 q 172 364 182 355 q 192 347 192 326 q 192 320 190 312 q 189 304 186 295 l 133 133 q 130 123 128 114 q 127 105 127 97 q 127 79 135 69 q 144 58 159 58 q 195 58 241 130 q 288 202 347 347 l 437 356 q 396 240 380 185 q 365 131 365 103 q 365 74 378 60 q 391 46 419 46 q 447 46 472 62 q 498 78 519 109 q 536 132 544 160 q 553 188 554 220 z"},"-":{"x_min":0,"x_max":280,"ha":280,"o":"m -20 144 l 0 227 l 222 227 l 201 144 z"},"E":{"x_min":0,"x_max":698,"ha":698,"o":"m 129 3 q 66 3 -1 -5 q -18 -7 -22 -7 q -30 -7 -35 -4 q -40 -2 -40 2 q -40 11 -22 18 q -4 24 67 35 q 83 86 95 131 q 108 175 116 209 l 189 509 q 193 524 200 557 q 207 591 223 669 q 219 669 209 671 q 112 685 112 700 q 112 706 116 708 q 120 711 129 711 q 132 711 146 709 q 215 700 285 700 l 381 700 q 447 700 515 704 q 583 708 651 715 l 673 766 q 678 777 682 781 q 687 786 692 786 q 694 786 695 784 q 697 782 697 778 q 697 773 681 729 q 666 685 656 642 q 650 617 645 581 q 640 544 631 544 q 626 544 624 549 q 621 553 621 565 q 621 570 621 574 q 622 578 622 582 l 627 625 q 582 648 528 661 q 474 673 416 673 q 403 673 385 672 q 367 671 344 669 q 323 601 312 561 q 300 521 294 494 l 266 371 l 269 371 q 306 369 324 369 q 393 369 451 378 q 510 388 561 407 l 582 461 q 586 473 591 477 q 595 482 601 482 q 604 482 605 480 q 607 478 607 474 q 607 469 591 421 q 575 374 565 329 q 559 303 554 265 q 548 226 540 226 q 535 226 532 230 q 530 235 530 244 q 530 250 530 255 q 530 260 531 266 l 534 311 q 484 328 423 337 q 361 345 286 345 l 260 345 l 222 195 q 218 179 208 135 q 199 91 188 35 q 223 31 245 30 q 267 28 284 28 q 353 28 415 44 q 478 60 534 91 l 556 142 q 561 154 565 158 q 569 162 574 162 q 577 162 578 160 q 580 159 580 155 q 580 150 564 105 q 549 61 539 18 q 534 -6 528 -41 q 522 -80 513 -80 q 509 -80 506 -76 q 503 -71 503 -64 q 503 -57 504 -42 l 506 -18 q 448 -7 367 -2 q 285 3 174 3 z"},"s":{"x_min":0,"x_max":428,"ha":428,"o":"m 4 12 l -11 -21 q -12 -22 -13 -26 q -21 -42 -28 -42 q -31 -42 -32 -41 q -34 -39 -34 -34 q -34 -29 -21 8 q -9 44 -1 76 q 3 92 7 117 q 11 144 19 144 q 23 144 25 140 q 27 135 27 127 l 27 122 l 25 90 q 65 60 108 42 q 152 25 186 25 q 214 25 232 37 q 250 50 250 68 q 250 84 235 95 q 220 106 160 122 q 86 143 62 164 q 37 185 37 221 q 37 277 97 320 q 157 364 238 364 q 259 364 281 361 q 303 358 328 352 l 343 385 q 344 386 345 389 q 353 405 360 405 q 364 405 365 403 q 366 401 366 397 q 366 393 353 359 q 340 326 333 295 q 329 280 325 257 q 320 228 312 228 q 309 228 307 233 q 305 237 305 245 l 305 250 l 307 280 q 273 298 239 307 q 205 316 172 316 q 135 316 115 304 q 94 293 94 273 q 94 246 165 227 q 169 226 172 225 q 269 198 294 179 q 319 160 319 127 q 319 73 259 29 q 199 -15 120 -15 q 91 -15 62 -8 q 34 -1 4 12 z"},">":{"x_min":0,"x_max":833,"ha":833,"o":"m 129 566 l 704 330 l 704 267 l 129 31 l 129 106 l 603 298 l 129 491 z"},"l":{"x_min":0,"x_max":226,"ha":226,"o":"m -14 0 l 178 721 q 182 735 184 749 q 186 762 186 771 q 186 777 183 781 q 180 784 176 784 q 164 784 140 748 q 117 712 110 712 q 106 712 104 714 q 102 717 102 722 q 102 729 112 748 q 122 766 137 785 q 166 821 190 837 q 214 852 241 852 q 260 852 271 840 q 283 828 283 808 q 283 794 280 775 q 277 755 273 739 l 77 0 z"},"8":{"x_min":0,"x_max":583,"ha":583,"o":"m 213 329 q 145 302 110 263 q 75 223 75 172 q 75 110 128 73 q 181 36 270 36 q 347 36 396 76 q 446 116 446 175 q 446 240 289 299 q 241 318 213 329 z m 368 392 q 421 424 446 460 q 470 496 470 541 q 470 588 434 615 q 398 641 334 641 q 264 641 222 609 q 180 578 180 527 q 180 481 218 453 q 255 424 368 392 z m 189 341 q 152 367 138 393 q 123 419 123 455 q 123 552 204 624 q 285 695 401 695 q 472 695 511 665 q 551 634 551 580 q 551 525 509 474 q 467 423 391 384 q 453 365 485 326 q 517 288 517 234 q 517 202 499 163 q 480 124 447 89 q 398 38 330 10 q 261 -19 187 -19 q 98 -19 43 22 q -11 64 -11 131 q -11 196 38 248 q 88 300 189 341 z"},"\\":{"x_min":0,"x_max":292,"ha":292,"o":"m 204 -93 l 46 722 l 102 722 l 261 -93 z"},"e":{"x_min":0,"x_max":437,"ha":437,"o":"m 83 139 l 103 139 q 191 139 236 170 q 281 202 281 263 q 281 297 266 312 q 251 326 216 326 q 150 326 116 280 q 83 234 83 143 z m 87 119 q 94 83 129 59 q 165 35 212 35 q 269 35 330 81 q 345 92 348 92 q 351 92 354 89 q 356 86 356 83 q 356 59 291 22 q 226 -14 147 -14 q 69 -14 25 21 q -19 57 -19 119 q -19 213 69 289 q 156 364 272 364 q 329 364 358 344 q 387 324 387 285 q 387 212 304 166 q 222 120 87 119 z"},"b":{"x_min":0,"x_max":477,"ha":477,"o":"m 81 66 q 116 52 142 46 q 169 40 192 40 q 220 40 246 57 q 271 74 288 104 q 306 136 318 177 q 330 219 330 245 q 330 274 312 290 q 293 306 260 306 q 191 306 147 248 q 104 189 81 66 z m -21 10 l 156 721 q 160 737 162 751 q 164 765 164 771 q 164 777 161 781 q 158 784 154 784 q 142 784 118 748 q 95 712 88 712 q 84 712 82 714 q 80 717 80 722 q 80 729 90 747 q 100 765 115 785 q 144 821 168 837 q 193 852 222 852 q 243 852 256 840 q 268 828 268 807 q 268 797 265 781 q 262 765 255 739 l 138 272 q 178 319 220 342 q 262 364 312 364 q 369 364 399 337 q 430 311 430 263 q 430 225 406 180 q 381 135 337 94 q 281 42 215 14 q 148 -14 84 -14 q 57 -14 31 -8 q 5 -2 -21 10 z"},"%":{"x_min":0,"x_max":838,"ha":838,"o":"m 191 351 q 126 351 88 389 q 50 427 50 491 q 50 570 104 627 q 159 683 236 683 q 299 683 341 642 q 382 602 382 540 q 382 462 326 407 q 270 351 191 351 z m 124 477 q 124 429 144 402 q 163 376 199 376 q 243 376 276 431 q 309 487 309 560 q 309 605 290 630 q 271 655 237 655 q 193 655 158 601 q 124 548 124 477 z m 526 118 q 526 70 545 44 q 565 18 601 18 q 645 18 678 73 q 711 128 711 201 q 711 247 692 272 q 672 297 638 297 q 594 297 560 243 q 526 189 526 118 z m 594 -10 q 530 -10 491 29 q 453 67 453 131 q 453 210 508 267 q 562 323 639 323 q 703 323 744 282 q 785 242 785 180 q 785 102 729 46 q 672 -10 594 -10 z m 172 -39 l 615 713 l 663 713 l 220 -39 z"},"m":{"x_min":0,"x_max":780,"ha":780,"o":"m 314 194 q 321 214 325 237 q 329 260 329 273 q 329 288 323 296 q 317 304 306 304 q 267 304 212 225 q 157 145 97 0 l 4 0 q 42 110 62 184 q 82 257 82 284 q 82 293 78 299 q 74 304 68 304 q 56 304 35 281 q 15 257 7 257 q 4 257 2 259 q 0 262 0 265 q 0 282 47 322 q 93 363 132 363 q 157 363 169 352 q 180 340 180 315 q 180 300 174 269 q 167 238 146 160 q 210 273 260 318 q 309 363 364 363 q 393 363 408 350 q 423 337 423 312 q 423 301 420 285 q 418 270 414 254 l 387 160 q 447 269 502 316 q 557 363 622 363 q 652 363 669 351 q 686 339 686 317 q 686 301 674 265 q 671 258 670 254 l 612 88 q 605 68 604 60 q 602 52 602 47 q 602 40 606 37 q 609 33 616 33 q 629 33 654 56 q 678 78 684 78 q 688 78 689 76 q 691 74 691 70 q 691 54 643 20 q 595 -14 550 -14 q 528 -14 515 -4 q 503 6 503 24 q 503 38 515 76 l 516 79 l 554 194 q 563 221 569 243 q 574 264 574 274 q 574 290 568 297 q 561 304 547 304 q 506 304 450 222 q 394 139 343 0 l 250 0 z"},"#":{"x_min":0,"x_max":769,"ha":769,"o":"m 343 422 l 295 287 l 433 287 l 480 422 z m 371 712 l 447 712 l 368 490 l 503 490 l 582 712 l 658 712 l 579 490 l 726 490 l 702 422 l 555 422 l 508 287 l 664 287 l 640 219 l 484 219 l 405 -2 l 329 -2 l 408 219 l 272 219 l 193 -2 l 118 -2 l 196 219 l 43 219 l 68 287 l 220 287 l 268 422 l 104 422 l 129 490 l 292 490 z"},",":{"x_min":0,"x_max":292,"ha":292,"o":"m 124 101 q 138 101 143 96 q 149 92 149 81 q 149 69 132 34 q 114 -1 87 -41 q 50 -94 19 -129 q -12 -164 -21 -164 q -24 -164 -27 -161 q -29 -158 -29 -154 q -29 -153 -9 -115 q 12 -77 25 -35 q 38 5 43 53 q 48 101 67 101 l 83 101 z"},"n":{"x_min":0,"x_max":551,"ha":551,"o":"m 4 0 q 42 110 62 184 q 82 257 82 284 q 82 293 78 299 q 74 304 68 304 q 56 304 35 281 q 15 257 7 257 q 4 257 2 259 q 0 262 0 265 q 0 282 47 322 q 93 363 132 363 q 157 363 169 352 q 180 340 180 315 q 180 301 174 271 q 167 241 146 160 q 214 280 265 321 q 317 363 387 363 q 421 363 438 351 q 456 340 456 317 q 456 307 453 294 q 450 282 440 254 l 382 88 q 375 68 374 60 q 372 52 372 47 q 372 40 376 37 q 379 33 386 33 q 399 33 424 56 q 448 78 454 78 q 458 78 459 76 q 461 74 461 70 q 461 54 413 20 q 365 -14 320 -14 q 297 -14 285 -4 q 273 6 273 24 q 273 38 285 76 l 286 79 l 324 194 q 333 221 339 243 q 344 264 344 274 q 344 291 337 297 q 330 304 312 304 q 268 304 214 228 q 160 151 97 0 z"},"h":{"x_min":0,"x_max":521,"ha":521,"o":"m -23 0 l 156 721 q 160 737 162 751 q 164 765 164 771 q 164 777 161 781 q 158 784 154 784 q 142 784 118 748 q 95 712 88 712 q 84 712 82 714 q 80 717 80 722 q 80 729 90 747 q 100 765 115 785 q 144 821 168 837 q 193 852 222 852 q 243 852 256 840 q 268 828 268 807 q 268 797 265 781 q 262 765 255 739 l 93 117 q 175 269 229 316 q 282 363 356 363 q 390 363 408 351 q 426 339 426 317 q 426 307 423 294 q 420 282 410 254 l 352 88 q 346 68 344 60 q 342 52 342 47 q 342 40 345 37 q 349 33 356 33 q 369 33 394 56 q 418 78 424 78 q 427 78 429 76 q 431 73 431 70 q 431 54 383 20 q 334 -14 290 -14 q 268 -14 255 -4 q 243 6 243 24 q 243 38 255 76 l 256 79 l 294 194 q 303 221 309 243 q 314 264 314 274 q 314 291 307 297 q 300 304 282 304 q 238 304 184 228 q 130 151 67 0 z"},"z":{"x_min":0,"x_max":424,"ha":424,"o":"m 106 93 q 110 93 116 94 q 122 94 131 94 q 163 94 207 81 q 251 67 262 67 q 287 67 304 89 q 321 111 325 111 q 329 111 331 109 q 333 107 333 103 q 333 97 326 83 q 319 70 306 52 q 280 17 254 1 q 227 -14 193 -14 q 166 -14 117 0 q 67 15 50 15 q 29 15 6 6 q -18 -4 -21 -4 q -24 -4 -27 -2 q -30 0 -30 4 q -30 23 78 107 q 186 191 254 251 q 208 255 151 280 q 93 304 74 304 q 52 304 39 292 q 25 279 25 259 q 25 246 30 231 q 34 217 34 216 q 34 212 32 211 q 31 209 27 209 q 19 209 13 223 q 8 238 8 260 q 8 305 44 337 q 81 370 131 370 q 168 370 233 343 q 297 316 323 316 q 334 316 350 322 q 365 327 369 327 q 372 327 374 325 q 376 323 376 320 q 376 308 275 229 q 173 149 106 93 z"},"B":{"x_min":0,"x_max":749,"ha":749,"o":"m 67 35 q 83 86 95 131 q 108 175 116 209 l 189 509 q 193 524 200 557 q 207 591 223 669 q 219 669 209 671 q 112 685 112 700 q 112 706 116 708 q 120 711 129 711 q 130 711 177 706 q 223 700 268 700 q 310 700 384 706 q 458 711 491 711 q 597 711 654 671 q 711 631 711 557 q 711 479 652 425 q 593 372 478 347 q 565 340 612 300 q 658 260 658 193 q 658 101 570 45 q 482 -10 330 -10 q 289 -10 216 -3 q 143 4 110 4 q 69 4 26 -1 q -18 -7 -22 -7 q -30 -7 -35 -4 q -40 -2 -40 2 q -40 11 -22 18 q -4 24 67 35 z m 188 35 q 226 24 257 19 q 289 14 319 14 q 419 14 482 63 q 544 113 544 192 q 544 264 486 302 q 428 339 316 339 q 302 339 287 339 q 272 338 257 338 l 222 195 q 217 175 208 132 q 199 88 188 35 z m 264 365 q 270 365 283 364 q 334 361 353 361 q 479 361 542 403 q 605 446 605 530 q 605 601 559 641 q 514 681 432 681 q 415 681 395 678 q 375 676 344 669 q 326 611 314 568 q 301 524 294 494 z"},"K":{"x_min":0,"x_max":720,"ha":720,"o":"m 262 355 l 274 356 l 394 466 q 460 527 511 578 q 562 629 598 669 q 587 672 570 676 q 520 688 520 700 q 520 706 523 708 q 526 711 535 711 q 538 711 550 709 q 611 700 672 700 q 727 700 786 709 q 799 711 803 711 q 810 711 814 708 q 818 705 818 701 q 818 686 729 670 l 724 669 q 616 608 512 528 q 408 448 311 352 q 372 351 408 329 q 445 307 472 257 l 550 111 q 575 66 591 49 q 606 32 623 32 q 633 32 643 39 q 653 45 656 45 q 659 45 661 42 q 664 40 664 36 q 664 22 632 1 q 599 -19 567 -19 q 520 -19 475 60 q 471 68 469 71 l 391 209 q 346 289 321 311 q 297 334 267 334 q 266 334 262 333 q 258 333 256 333 l 222 195 q 216 170 207 127 q 198 84 188 35 q 193 34 201 33 q 299 19 299 4 q 299 -2 295 -4 q 292 -7 282 -7 q 278 -7 263 -5 q 193 3 129 3 q 66 3 -1 -5 q -18 -7 -22 -7 q -30 -7 -35 -4 q -40 -2 -40 2 q -40 11 -22 18 q -4 24 67 35 q 83 86 95 131 q 108 175 116 209 l 189 509 q 193 524 200 557 q 207 591 223 669 q 219 669 209 671 q 112 685 112 700 q 112 706 116 708 q 120 711 129 711 q 132 711 146 709 q 215 700 285 700 q 346 700 412 709 q 429 711 433 711 q 441 711 446 708 q 451 705 451 701 q 451 686 348 669 l 344 669 q 323 601 312 561 q 300 521 294 494 z"},"R":{"x_min":0,"x_max":713,"ha":713,"o":"m 67 35 q 83 86 95 131 q 108 175 116 209 l 189 509 q 193 524 200 557 q 207 591 223 669 q 219 669 209 671 q 112 685 112 700 q 112 706 116 708 q 120 711 129 711 q 130 711 177 706 q 224 700 269 700 q 313 700 387 706 q 460 711 490 711 q 590 711 643 666 q 697 622 697 538 q 697 444 625 387 q 552 331 404 309 l 499 128 l 500 127 q 567 -2 607 -2 q 613 -2 622 0 q 631 2 633 2 q 637 2 639 -1 q 642 -4 642 -8 q 642 -19 614 -31 q 585 -44 552 -44 q 512 -44 482 -23 q 452 -2 429 42 l 303 286 q 303 287 302 288 q 295 302 295 311 q 295 320 333 324 q 367 327 391 331 q 493 348 542 398 q 591 448 591 535 q 591 610 552 646 q 513 681 431 681 q 414 681 393 678 q 373 675 344 669 q 325 607 313 566 q 302 525 294 494 l 222 195 q 216 168 207 126 q 198 84 188 35 q 267 26 288 20 q 309 14 309 4 q 309 -2 305 -4 q 302 -7 292 -7 q 289 -7 272 -5 q 204 3 139 3 q 67 3 -5 -5 q -19 -7 -22 -7 q -30 -7 -35 -4 q -40 -2 -40 2 q -40 11 -22 18 q -4 24 67 35 z"},"T":{"x_min":0,"x_max":669,"ha":669,"o":"m 468 669 q 450 609 438 567 q 426 525 419 494 l 346 195 q 340 168 331 126 q 322 84 312 35 q 317 34 325 33 q 423 19 423 4 q 423 -2 419 -4 q 416 -7 406 -7 q 402 -7 387 -5 q 317 3 253 3 q 190 3 123 -5 q 106 -7 102 -7 q 93 -7 89 -4 q 84 -2 84 3 q 84 6 87 9 q 91 12 99 16 q 110 20 127 24 q 145 27 191 35 q 210 96 222 138 q 234 180 241 209 l 313 509 q 317 524 324 557 q 331 591 347 669 l 323 669 q 266 669 211 659 q 157 649 104 630 l 69 541 q 65 531 61 526 q 57 521 51 521 q 48 521 47 523 q 45 525 45 529 q 45 534 60 579 q 76 623 86 665 q 92 689 97 724 q 103 763 112 763 q 118 763 120 758 q 122 754 122 742 q 122 735 122 730 q 122 726 121 721 q 178 711 253 706 q 328 701 425 701 q 511 701 582 705 q 652 708 711 715 l 727 743 q 729 746 731 750 q 737 763 745 763 q 748 763 749 761 q 751 758 751 755 q 751 750 735 706 q 720 662 710 619 q 704 594 699 558 q 693 521 685 521 q 680 521 677 526 q 675 531 675 544 q 675 549 675 552 q 675 556 676 559 l 687 632 q 645 648 593 657 q 542 666 468 669 z"},"P":{"x_min":0,"x_max":692,"ha":692,"o":"m 258 344 q 287 338 314 335 q 340 332 364 332 q 468 332 530 387 q 591 442 591 534 q 591 609 552 645 q 513 681 431 681 q 414 681 393 678 q 373 675 344 669 q 327 614 314 572 q 302 529 294 494 z m 67 35 q 83 86 95 131 q 108 175 116 209 l 189 509 q 193 524 200 557 q 207 591 223 669 q 219 669 209 671 q 112 685 112 700 q 112 706 116 708 q 120 711 129 711 q 130 711 177 706 q 224 700 269 700 q 313 700 387 706 q 460 711 490 711 q 590 711 643 666 q 697 621 697 538 q 697 433 608 368 q 519 303 375 303 q 347 303 316 307 q 286 311 252 319 l 222 195 q 216 170 207 127 q 198 84 188 35 q 267 26 288 20 q 309 14 309 4 q 309 -2 305 -4 q 302 -7 292 -7 q 289 -7 272 -5 q 204 3 139 3 q 67 3 -5 -5 q -19 -7 -22 -7 q -30 -7 -35 -4 q -40 -2 -40 2 q -40 11 -22 18 q -4 24 67 35 z"},"|":{"x_min":0,"x_max":500,"ha":500,"o":"m 214 764 l 287 764 l 287 -236 l 214 -236 z"},"t":{"x_min":0,"x_max":310,"ha":310,"o":"m 78 321 q 60 320 42 318 q 25 316 6 312 l 16 354 q 27 352 40 350 q 53 349 70 349 l 86 349 l 146 562 l 243 562 l 179 349 l 195 349 q 213 349 234 350 q 255 352 283 354 l 269 313 q 249 316 225 318 q 201 320 170 321 l 119 146 q 114 127 111 109 q 108 91 108 78 q 108 60 118 50 q 129 39 147 39 q 175 39 201 62 q 227 84 228 84 q 232 84 235 82 q 237 79 237 74 q 237 51 184 18 q 131 -15 73 -15 q 42 -15 25 -1 q 8 12 8 37 q 8 51 12 72 q 16 92 23 119 z"},"M":{"x_min":0,"x_max":892,"ha":892,"o":"m 224 624 q 218 646 206 658 q 194 669 164 679 q 162 680 158 681 q 127 690 127 700 q 127 706 131 708 q 134 711 144 711 q 145 711 174 708 q 203 704 230 704 q 250 704 269 705 q 289 706 309 708 l 437 233 l 727 708 l 730 708 q 779 704 800 704 q 826 704 854 708 q 881 711 882 711 q 890 711 895 708 q 900 705 900 701 q 900 687 821 672 q 808 670 801 669 q 789 622 781 581 q 773 541 769 505 l 731 193 q 730 187 729 172 q 719 93 717 35 q 730 32 752 27 q 805 17 805 4 q 805 -2 802 -4 q 798 -7 790 -7 q 786 -7 770 -5 q 708 3 653 3 q 595 3 532 -5 q 517 -7 513 -7 q 505 -7 501 -4 q 497 -2 497 3 q 497 13 520 20 q 543 27 603 35 q 611 71 618 113 q 625 155 632 209 l 678 581 l 397 116 q 392 107 387 102 q 382 96 379 96 q 375 96 372 101 q 368 106 366 115 l 248 542 l 176 310 q 150 227 134 156 q 118 85 112 35 q 177 28 198 21 q 219 15 219 4 q 219 -2 216 -4 q 212 -7 205 -7 q 202 -7 188 -5 q 129 3 76 3 q 23 3 -33 -5 q -46 -7 -50 -7 q -57 -7 -61 -4 q -65 -2 -65 2 q -65 12 -47 19 q -29 26 28 35 q 74 131 109 217 q 145 303 168 377 l 234 585 z"},"g":{"x_min":0,"x_max":485,"ha":485,"o":"m 320 296 q 283 306 257 311 q 231 316 214 316 q 179 316 156 303 q 134 290 114 259 q 95 229 84 193 q 73 156 73 122 q 73 83 91 61 q 108 39 138 39 q 194 39 249 113 q 304 187 320 296 z m 430 343 q 415 290 391 195 q 340 -2 295 -60 q 231 -142 159 -187 q 88 -232 21 -232 q -17 -232 -41 -219 q -65 -206 -65 -187 q -65 -177 -61 -160 q -56 -143 -48 -122 l -31 -78 q -27 -69 -22 -63 q -18 -58 -13 -58 q -10 -58 -8 -60 q -6 -62 -6 -65 q -6 -65 -10 -79 q -14 -94 -14 -108 q -14 -136 12 -148 q 38 -161 96 -161 q 171 -161 204 -118 q 237 -75 275 113 q 227 50 179 20 q 130 -10 78 -10 q 31 -10 2 19 q -26 47 -26 94 q -26 136 2 184 q 29 232 78 275 q 128 319 188 341 q 249 364 314 364 q 344 364 373 359 q 401 354 430 343 z"},"j":{"x_min":0,"x_max":255,"ha":255,"o":"m 97 1 q 66 -98 6 -165 q -55 -232 -98 -232 q -102 -232 -104 -230 q -107 -228 -107 -225 q -107 -219 -93 -209 q -78 -200 -72 -194 q -34 -156 -1 -36 q 4 -17 7 -7 l 54 164 l 58 180 q 82 268 82 284 q 82 293 78 299 q 74 304 68 304 q 56 304 35 281 q 15 257 7 257 q 4 257 2 259 q 0 262 0 265 q 0 282 47 322 q 93 363 132 363 q 157 363 169 352 q 180 340 180 315 q 180 299 171 254 q 161 208 146 160 z m 125 554 q 125 579 144 597 q 162 616 187 616 q 212 616 230 597 q 249 579 249 554 q 249 528 231 510 q 212 491 187 491 q 162 491 143 510 q 125 528 125 554 z"},"i":{"x_min":0,"x_max":269,"ha":269,"o":"m 5 0 l 54 164 q 67 208 74 240 q 82 272 82 284 q 82 293 78 299 q 74 304 68 304 q 56 304 35 281 q 15 257 7 257 q 4 257 2 259 q 0 262 0 265 q 0 282 47 323 q 93 363 135 363 q 162 363 175 351 q 188 340 188 316 q 188 295 173 246 q 168 231 166 223 l 100 0 z m 125 554 q 125 579 144 597 q 162 616 187 616 q 212 616 230 597 q 249 579 249 554 q 249 528 231 510 q 212 491 187 491 q 162 491 143 510 q 125 528 125 554 z"},"y":{"x_min":0,"x_max":502,"ha":502,"o":"m 319 201 q 259 82 204 33 q 149 -16 78 -16 q 49 -16 33 -4 q 16 9 16 30 q 16 43 19 61 q 22 78 28 95 l 85 262 q 90 275 93 286 q 95 296 95 303 q 95 310 92 313 q 88 317 81 317 q 67 317 43 294 q 19 272 14 272 q 11 272 9 274 q 7 277 7 280 q 7 296 55 330 q 104 364 148 364 q 170 364 182 354 q 194 343 194 325 q 194 316 191 305 q 189 293 182 271 l 143 155 q 134 127 129 106 q 124 86 124 76 q 124 60 131 53 q 138 46 153 46 q 200 46 254 125 q 308 204 361 350 l 448 350 q 434 299 411 208 q 357 -1 312 -60 q 248 -143 177 -187 q 105 -232 39 -232 q 0 -232 -24 -219 q -48 -206 -48 -186 q -48 -177 -44 -164 q -41 -151 -31 -125 l -13 -78 q -9 -68 -5 -63 q 0 -58 4 -58 q 7 -58 9 -60 q 11 -62 11 -65 q 11 -65 8 -79 q 4 -94 4 -108 q 4 -136 30 -148 q 56 -161 113 -161 q 170 -161 198 -142 q 226 -122 252 -57 q 283 19 318 198 z"},"@":{"x_min":0,"x_max":986,"ha":986,"o":"m 579 162 q 549 111 512 86 q 475 61 429 61 q 366 61 329 106 q 291 151 291 226 q 291 279 315 332 q 339 384 384 427 q 417 458 455 475 q 493 492 531 492 q 575 492 602 469 q 629 445 639 399 l 664 484 l 741 484 l 657 185 q 657 184 655 179 q 648 152 648 137 q 648 112 659 99 q 671 85 692 85 q 708 85 731 95 q 754 104 775 120 q 833 164 863 232 q 892 299 892 387 q 892 452 866 507 q 841 562 790 605 q 746 643 686 663 q 625 683 555 683 q 467 683 391 653 q 315 623 257 565 q 195 504 164 425 q 133 345 133 250 q 133 161 161 97 q 188 33 248 -17 q 301 -62 372 -86 q 443 -110 522 -110 q 605 -110 682 -85 q 758 -60 828 -9 l 844 -29 q 772 -83 692 -110 q 611 -137 523 -137 q 431 -137 354 -115 q 278 -93 220 -49 q 146 6 108 86 q 69 166 69 262 q 69 361 111 448 q 153 535 234 601 q 299 655 378 683 q 456 710 545 710 q 714 710 816 618 q 918 526 918 374 q 918 296 889 229 q 861 161 808 113 q 779 87 747 74 q 714 60 681 60 q 634 60 608 86 q 583 112 579 162 z m 539 469 q 513 469 491 454 q 469 439 447 406 q 412 354 392 292 q 371 230 371 180 q 371 138 390 113 q 410 87 440 87 q 472 87 500 108 q 528 129 554 173 q 581 218 597 272 q 614 327 614 369 q 614 414 593 442 q 573 469 539 469 z"},".":{"x_min":0,"x_max":292,"ha":292,"o":"m 85 -9 q 61 -9 43 8 q 26 25 26 49 q 26 73 44 91 q 62 109 85 109 q 109 109 127 91 q 144 74 144 50 q 144 24 127 8 q 111 -9 85 -9 z"},"p":{"x_min":0,"x_max":537,"ha":537,"o":"m 146 63 q 188 50 215 45 q 242 39 262 39 q 292 39 310 53 q 328 67 344 102 q 358 133 367 176 q 377 218 377 251 q 377 280 362 294 q 347 308 315 308 q 264 308 226 262 q 188 216 163 125 z m -21 -232 l 43 16 q 26 21 10 26 q -5 31 -21 37 l 1 106 q 11 103 23 98 q 35 94 60 85 q 77 152 86 203 q 95 253 95 280 q 95 292 92 298 q 88 304 81 304 q 69 304 48 281 q 27 257 19 257 q 16 257 15 259 q 13 261 13 265 q 13 282 59 322 q 105 363 144 363 q 170 363 180 351 q 191 340 191 311 q 191 300 190 285 q 189 271 186 243 q 225 306 268 335 q 311 364 363 364 q 417 364 447 336 q 477 309 477 261 q 477 216 459 175 q 441 134 406 98 q 357 48 295 16 q 234 -15 186 -15 q 173 -15 158 -13 q 144 -11 128 -6 l 76 -232 z"},"X":{"x_min":0,"x_max":703,"ha":703,"o":"m 114 35 q 186 26 204 20 q 223 14 223 4 q 223 -2 220 -4 q 217 -7 209 -7 q 205 -7 190 -5 q 129 3 74 3 q 20 3 -40 -5 q -55 -7 -59 -7 q -66 -7 -70 -4 q -74 -2 -74 2 q -74 12 -55 19 q -36 26 23 35 q 55 60 114 123 q 172 186 306 340 l 153 669 l 142 671 q 53 685 53 700 q 53 706 57 708 q 61 711 69 711 q 72 711 85 709 q 148 700 212 700 q 268 700 329 709 q 344 711 348 711 q 355 711 360 708 q 364 706 364 701 q 364 686 275 670 l 269 669 l 385 422 q 451 493 499 557 q 546 620 569 669 l 560 670 q 474 685 474 700 q 474 706 477 708 q 480 711 488 711 q 491 711 504 709 q 562 700 619 700 q 673 700 731 709 q 745 711 749 711 q 756 711 760 708 q 764 705 764 701 q 764 690 741 683 q 718 676 660 669 q 602 616 536 549 q 471 481 398 400 l 569 35 q 646 25 664 19 q 683 13 683 4 q 683 -2 679 -4 q 676 -7 666 -7 q 662 -7 645 -5 q 577 3 515 3 q 451 3 381 -5 q 366 -7 362 -7 q 354 -7 349 -4 q 344 -2 344 3 q 344 12 362 18 q 380 24 451 35 l 319 317 q 222 206 177 144 q 133 82 114 35 z"},"*":{"x_min":0,"x_max":329,"ha":329,"o":"m 215 598 q 229 607 254 634 q 278 661 299 661 q 311 661 319 653 q 327 644 327 632 q 327 607 274 593 q 244 585 227 578 l 227 564 q 243 558 272 549 q 327 534 327 510 q 327 498 318 489 q 310 480 297 480 q 279 480 255 507 q 231 533 216 543 l 206 536 q 206 518 215 491 q 223 465 223 455 q 223 438 215 428 q 208 419 193 419 q 179 419 171 428 q 163 438 163 455 q 163 466 172 492 q 181 518 181 536 l 167 543 q 152 534 127 507 q 103 480 85 480 q 73 480 64 489 q 56 498 56 510 q 56 534 110 549 q 139 558 155 564 l 156 578 q 140 585 108 593 q 56 607 56 632 q 56 644 64 652 q 72 661 83 661 q 104 661 128 634 q 152 607 167 598 l 181 605 q 180 624 172 649 q 163 675 163 686 q 163 704 171 713 q 178 722 193 722 q 208 722 215 713 q 223 703 223 686 q 223 676 215 650 q 206 624 206 605 z"},"Y":{"x_min":0,"x_max":664,"ha":664,"o":"m 115 669 q 100 673 77 678 q 33 688 33 700 q 33 706 37 708 q 40 711 48 711 q 51 711 64 709 q 129 700 193 700 q 250 700 312 709 q 327 711 331 711 q 338 711 343 708 q 347 706 347 701 q 347 690 322 683 q 297 676 233 669 l 364 352 q 440 437 497 518 q 554 599 586 669 q 527 676 508 683 q 489 689 489 700 q 489 706 492 708 q 495 711 502 711 q 505 711 518 709 q 571 700 620 700 q 671 700 724 709 q 736 711 739 711 q 746 711 749 708 q 753 706 753 701 q 753 688 701 675 q 686 671 677 669 q 629 622 549 530 q 468 438 373 320 l 344 195 q 343 190 339 173 q 323 100 310 35 q 315 34 323 33 q 421 19 421 4 q 421 -2 417 -4 q 414 -7 404 -7 q 400 -7 384 -5 q 315 3 251 3 q 188 3 121 -5 q 104 -7 100 -7 q 91 -7 87 -4 q 82 -2 82 3 q 82 12 103 19 q 124 25 189 35 q 205 86 217 131 q 229 175 238 209 l 266 326 z"},"c":{"x_min":0,"x_max":378,"ha":378,"o":"m 290 279 q 265 297 237 306 q 209 315 180 315 q 156 315 140 304 q 125 293 112 267 q 98 238 89 197 q 79 155 79 122 q 79 81 101 57 q 123 34 162 34 q 209 34 249 73 q 288 111 289 111 q 291 111 293 108 q 295 106 295 103 q 295 98 284 82 q 274 65 259 49 q 230 19 191 2 q 152 -15 110 -15 q 47 -15 12 17 q -23 48 -23 105 q -23 152 2 199 q 28 247 74 286 q 118 322 167 343 q 216 363 258 363 q 272 363 287 360 q 302 357 318 351 l 326 370 q 326 371 327 372 q 333 388 341 388 q 343 388 345 386 q 348 384 348 381 q 348 378 334 341 q 321 304 312 267 q 309 255 306 237 q 299 205 290 205 q 286 205 284 208 q 282 211 282 217 q 282 217 283 219 q 283 220 283 222 q 283 224 283 227 q 284 230 284 234 z"},"!":{"x_min":0,"x_max":352,"ha":352,"o":"m 312 674 l 133 196 q 129 186 124 180 q 119 174 114 174 q 110 174 108 178 q 106 182 106 187 q 106 193 108 203 l 193 646 q 198 670 202 680 q 206 689 211 695 q 219 703 247 712 q 274 721 295 721 q 309 721 314 717 q 319 712 319 700 q 319 695 318 690 q 316 685 312 674 z m 84 -9 q 59 -9 42 8 q 24 25 24 49 q 24 73 42 91 q 61 109 84 109 q 108 109 126 91 q 143 74 143 50 q 143 24 126 8 q 110 -9 84 -9 z"},"/":{"x_min":0,"x_max":292,"ha":292,"o":"m -91 -93 l 290 722 l 351 722 l -29 -93 z"},"[":{"x_min":0,"x_max":319,"ha":319,"o":"m 76 -128 l 133 -128 q 145 -128 152 -131 q 158 -135 158 -141 q 158 -147 154 -150 q 149 -153 135 -153 l -21 -153 l 193 704 l 352 704 q 364 704 371 701 q 377 697 377 691 q 377 685 372 682 q 368 679 354 679 l 278 679 z"},"6":{"x_min":0,"x_max":583,"ha":583,"o":"m 167 448 q 138 379 124 311 q 109 242 109 175 q 109 98 140 55 q 171 13 227 13 q 265 13 300 36 q 336 58 368 102 q 410 161 435 238 q 459 315 459 391 q 459 467 429 508 q 399 548 342 548 q 299 548 251 521 q 204 494 167 448 z m 201 515 q 255 558 310 582 q 364 605 409 605 q 479 605 519 555 q 558 504 558 415 q 558 331 525 249 q 493 167 434 104 q 376 42 312 11 q 248 -19 174 -19 q 92 -19 49 30 q 6 78 6 171 q 6 322 83 462 q 160 603 308 721 q 368 769 424 800 q 479 830 501 830 q 505 830 507 828 q 510 826 510 822 q 510 814 477 795 q 444 775 419 756 q 342 697 290 639 q 237 582 201 515 z"},"r":{"x_min":0,"x_max":368,"ha":368,"o":"m 4 0 q 42 110 62 184 q 82 257 82 284 q 82 293 78 299 q 74 304 68 304 q 56 304 35 281 q 15 257 7 257 q 4 257 2 259 q 0 262 0 265 q 0 282 47 322 q 93 363 132 363 q 157 363 167 353 q 177 343 177 318 q 177 308 173 288 q 169 268 159 222 q 216 315 242 339 q 269 363 300 363 q 323 363 340 347 q 357 331 357 308 q 357 278 340 260 q 322 241 294 241 q 269 241 255 255 q 240 270 240 294 q 198 259 163 188 q 128 116 97 0 z"},"2":{"x_min":0,"x_max":583,"ha":583,"o":"m 59 87 q 76 84 94 83 q 112 82 135 82 l 175 82 l 285 82 q 375 82 408 94 q 441 107 458 140 q 468 159 479 191 q 490 222 499 222 q 504 222 507 220 q 510 218 510 214 q 510 206 499 169 q 489 133 473 93 l 473 93 q 436 -2 391 -2 q 377 -2 355 -1 q 333 0 325 0 l 74 0 q 44 0 11 -3 q 1 -4 -1 -4 q -13 -4 -21 2 q -28 7 -28 16 q -28 39 19 91 q 65 143 137 197 q 165 218 231 262 q 297 306 331 333 q 390 379 417 423 q 445 467 445 513 q 445 570 404 604 q 364 639 297 639 q 236 639 193 611 q 149 583 115 521 q 105 503 95 477 q 85 451 76 451 q 72 451 70 454 q 68 458 68 465 q 68 476 79 505 q 89 534 105 560 q 146 627 206 661 q 266 694 348 694 q 439 694 495 648 q 551 603 551 528 q 551 481 531 438 q 512 396 476 363 q 426 317 308 262 q 281 249 267 242 q 189 203 134 162 q 79 120 59 87 z"},"{":{"x_min":0,"x_max":500,"ha":500,"o":"m 414 740 l 414 714 q 348 713 323 688 q 299 662 299 585 l 299 516 q 299 405 270 365 q 241 326 164 310 q 242 294 270 255 q 299 215 299 104 l 299 35 q 299 -42 323 -67 q 347 -92 414 -93 l 414 -119 l 409 -119 q 302 -119 262 -83 q 222 -47 222 50 l 222 151 q 222 229 193 259 q 165 289 87 295 l 87 326 q 166 333 194 362 q 222 392 222 470 l 222 571 q 222 668 262 704 q 302 740 409 740 z"},"9":{"x_min":0,"x_max":583,"ha":583,"o":"m 411 228 q 440 296 455 366 q 469 436 469 506 q 469 580 438 622 q 407 663 352 663 q 314 663 278 640 q 242 618 210 574 q 168 516 144 439 q 120 362 120 285 q 120 209 150 168 q 180 128 236 128 q 279 128 326 155 q 374 182 411 228 z m 378 161 q 323 118 268 94 q 213 70 169 70 q 99 70 60 120 q 21 171 21 261 q 21 345 53 426 q 86 507 145 572 q 203 634 267 664 q 332 695 405 695 q 487 695 530 646 q 573 597 573 505 q 573 354 496 214 q 419 74 271 -45 q 211 -93 155 -123 q 99 -154 78 -154 q 73 -154 71 -152 q 69 -149 69 -146 q 69 -138 102 -119 q 135 -99 160 -80 q 237 -21 289 37 q 342 95 378 161 z"}," ":{"x_min":0,"x_max":296,"ha":296,"o":""},"I":{"x_min":0,"x_max":414,"ha":414,"o":"m 222 195 q 216 168 207 126 q 198 84 188 35 q 193 34 201 33 q 299 19 299 4 q 299 -2 295 -4 q 292 -7 282 -7 q 278 -7 263 -5 q 193 3 129 3 q 66 3 -1 -5 q -18 -7 -22 -7 q -30 -7 -35 -4 q -40 -2 -40 2 q -40 11 -22 18 q -4 24 67 35 q 83 86 95 131 q 108 175 116 209 l 189 509 q 193 524 200 557 q 207 591 223 669 q 219 669 209 671 q 112 685 112 700 q 112 706 116 708 q 120 711 129 711 q 132 711 146 709 q 215 700 285 700 q 346 700 412 709 q 429 711 433 711 q 441 711 446 708 q 451 705 451 701 q 451 686 348 669 l 344 669 q 325 607 313 566 q 302 525 294 494 z"},"H":{"x_min":0,"x_max":856,"ha":856,"o":"m 590 344 l 258 344 l 222 195 q 216 173 190 45 l 188 35 q 193 34 201 33 q 299 19 299 4 q 299 -2 295 -4 q 292 -7 282 -7 q 278 -7 263 -5 q 193 3 129 3 q 66 3 -1 -5 q -18 -7 -22 -7 q -30 -7 -35 -4 q -40 -2 -40 2 q -40 11 -22 18 q -4 24 67 35 q 83 86 95 131 q 108 175 116 209 l 189 509 q 193 524 200 557 q 207 591 223 669 q 219 669 209 671 q 112 685 112 700 q 112 706 116 708 q 120 711 129 711 q 132 711 146 709 q 215 700 285 700 q 346 700 412 709 q 429 711 433 711 q 441 711 446 708 q 451 705 451 701 q 451 686 348 669 l 344 669 q 325 608 313 566 q 301 524 294 494 l 265 369 l 596 369 l 631 509 q 636 529 645 573 q 654 617 665 669 l 653 671 q 555 685 555 700 q 555 706 559 708 q 562 711 571 711 q 574 711 589 709 q 658 700 724 700 q 789 700 856 709 q 873 711 876 711 q 884 711 888 708 q 893 705 893 701 q 893 686 790 669 l 786 669 q 771 621 759 577 q 747 533 737 494 l 664 195 q 660 178 652 137 q 643 97 631 35 l 643 33 q 741 19 741 4 q 741 -2 737 -4 q 733 -7 724 -7 q 720 -7 703 -5 q 635 3 573 3 q 509 3 439 -5 q 424 -7 420 -7 q 412 -7 407 -4 q 402 -2 402 3 q 402 12 420 18 q 438 24 509 35 q 533 113 543 150 q 554 188 559 209 z"},"4":{"x_min":0,"x_max":583,"ha":583,"o":"m 296 186 l 399 580 q 321 495 238 398 q 156 302 69 196 q 116 190 161 188 q 206 185 250 185 q 257 185 273 186 q 289 186 296 186 z m 356 34 l 362 33 q 463 20 463 4 q 463 -2 459 -4 q 456 -7 447 -7 q 443 -7 428 -5 q 365 3 306 3 q 243 3 177 -5 q 162 -7 159 -7 q 151 -7 147 -4 q 142 -1 142 3 q 142 13 167 20 q 191 26 254 34 l 289 160 l 130 160 q 65 160 7 152 q -1 151 -3 151 q -13 151 -17 153 q -22 155 -22 160 q -22 168 -4 188 q -1 191 1 193 l 139 335 q 216 415 284 494 q 353 573 416 655 q 448 659 478 666 q 508 673 509 673 q 515 673 517 671 q 519 670 519 665 q 519 660 516 646 q 514 640 513 636 l 392 186 q 422 186 452 189 q 482 193 514 200 l 503 149 q 477 154 447 157 q 418 160 387 160 z"},"~":{"x_min":0,"x_max":833,"ha":833,"o":"m 747 376 l 747 300 q 696 265 650 248 q 604 231 557 231 q 512 231 432 259 q 421 263 416 265 l 408 268 q 322 297 275 297 q 234 297 189 279 q 145 261 87 220 l 87 296 q 139 331 186 349 q 232 366 276 366 q 306 366 338 360 q 370 353 418 336 q 426 333 441 328 q 519 300 558 300 q 601 300 646 318 q 690 336 747 376 z"},"D":{"x_min":0,"x_max":818,"ha":818,"o":"m 67 35 q 83 86 95 131 q 108 175 116 209 l 189 509 q 193 524 200 557 q 207 591 223 669 q 219 669 209 671 q 112 685 112 700 q 112 706 116 708 q 120 711 129 711 q 129 711 172 706 q 214 701 257 701 q 295 701 364 706 q 433 711 464 711 q 616 711 697 636 q 778 562 778 422 q 778 236 644 114 q 509 -9 302 -9 q 271 -9 206 -3 q 141 3 106 3 q 66 3 23 -2 q -19 -7 -22 -7 q -30 -7 -35 -4 q -40 -2 -40 2 q -40 11 -22 18 q -4 24 67 35 z m 189 35 q 221 24 248 19 q 274 14 297 14 q 376 14 439 44 q 502 73 551 133 q 600 193 629 276 q 658 358 658 440 q 658 558 600 622 q 542 685 434 685 q 410 685 388 681 q 366 677 343 669 q 327 616 314 572 q 302 527 294 494 l 223 195 q 216 166 207 124 q 198 83 189 35 z"},"^":{"x_min":0,"x_max":1000,"ha":1000,"o":"m 452 714 l 547 714 l 797 438 l 749 438 l 499 643 l 248 438 l 201 438 z"},"0":{"x_min":0,"x_max":583,"ha":583,"o":"m 119 162 q 119 84 145 45 q 170 5 219 5 q 259 5 300 38 q 340 71 373 132 q 393 168 409 214 q 425 261 439 324 q 451 378 458 427 q 464 476 464 514 q 464 591 438 630 q 413 670 364 670 q 322 670 283 638 q 244 605 210 544 q 169 469 144 364 q 119 259 119 162 z m 205 -19 q 116 -19 66 41 q 17 101 17 210 q 17 312 54 415 q 92 519 153 587 q 201 641 258 667 q 314 694 378 694 q 467 694 516 634 q 566 575 566 468 q 566 366 528 261 q 490 155 430 88 q 382 35 325 8 q 269 -19 205 -19 z"},"F":{"x_min":0,"x_max":648,"ha":648,"o":"m 67 35 q 83 86 95 131 q 108 175 116 209 l 189 509 q 193 524 200 557 q 207 591 223 669 q 219 669 209 671 q 112 685 112 700 q 112 706 116 708 q 120 711 129 711 q 132 711 146 709 q 215 700 285 700 l 381 700 q 447 700 515 704 q 583 708 651 715 l 673 766 q 678 777 682 781 q 687 786 692 786 q 694 786 695 784 q 697 782 697 778 q 697 773 681 729 q 666 685 656 642 q 650 617 645 581 q 640 544 631 544 q 626 544 624 549 q 621 553 621 565 q 621 570 621 574 q 622 578 622 582 l 627 625 q 582 648 528 661 q 474 673 416 673 q 403 673 385 672 q 367 671 344 669 q 323 601 312 561 q 300 521 294 494 l 266 371 l 269 371 q 306 369 324 369 q 393 369 451 378 q 510 388 561 407 l 582 461 q 586 473 591 477 q 595 482 601 482 q 604 482 605 480 q 607 478 607 474 q 607 469 591 421 q 575 374 565 329 q 559 303 554 265 q 548 226 540 226 q 535 226 532 230 q 530 235 530 244 q 530 250 530 255 q 530 260 531 266 l 534 311 q 484 328 423 337 q 361 345 286 345 l 260 345 l 222 195 q 218 179 208 135 q 199 91 188 35 q 267 25 286 19 q 305 13 305 4 q 305 -2 301 -4 q 297 -7 288 -7 q 284 -7 269 -5 q 199 3 135 3 q 67 3 -3 -5 q -18 -7 -22 -7 q -30 -7 -35 -4 q -40 -2 -40 2 q -40 11 -22 18 q -4 24 67 35 z"},"`":{"x_min":0,"x_max":500,"ha":500,"o":"m 267 565 l 387 418 l 336 418 l 209 511 q 192 523 185 533 q 178 542 178 552 q 178 571 190 583 q 201 595 219 595 q 231 595 243 588 q 254 581 267 565 z"},"k":{"x_min":0,"x_max":505,"ha":505,"o":"m 149 186 l 152 186 q 183 184 197 184 q 276 184 312 207 q 349 230 349 280 q 349 301 340 309 q 331 317 307 317 q 259 317 222 286 q 184 255 149 186 z m -23 0 l 156 721 q 160 737 162 751 q 164 765 164 771 q 164 777 161 781 q 158 784 154 784 q 142 784 118 748 q 95 712 88 712 q 84 712 82 714 q 80 717 80 722 q 80 729 90 747 q 100 765 115 785 q 144 821 168 837 q 193 852 222 852 q 243 852 256 840 q 268 828 268 807 q 268 797 265 781 q 262 765 255 739 l 100 135 q 165 267 219 315 q 274 363 352 363 q 394 363 417 347 q 440 331 440 302 q 440 240 387 204 q 333 168 237 166 q 286 107 323 73 q 360 38 374 38 q 393 38 406 67 q 419 96 425 96 q 427 96 429 94 q 430 91 430 87 q 430 43 402 13 q 375 -17 333 -17 q 267 -17 131 146 l 128 150 q 111 120 94 82 q 77 44 60 0 z"},"u":{"x_min":0,"x_max":551,"ha":551,"o":"m 462 350 q 424 238 404 165 q 384 92 384 65 q 384 55 387 50 q 391 45 398 45 q 410 45 430 68 q 451 92 459 92 q 462 92 464 90 q 466 87 466 84 q 466 67 419 27 q 373 -14 334 -14 q 309 -14 298 -2 q 286 9 286 34 q 286 48 293 80 q 300 111 320 189 q 253 71 202 29 q 150 -14 83 -14 q 48 -14 30 -1 q 12 13 12 38 q 12 46 15 57 q 17 68 26 95 l 84 261 q 89 274 92 285 q 94 295 94 302 q 94 309 91 312 q 87 316 80 316 q 66 316 42 293 q 17 271 12 271 q 9 271 7 273 q 5 275 5 279 q 5 295 53 329 q 101 363 146 363 q 168 363 181 353 q 193 343 193 325 q 193 311 181 273 l 180 270 l 142 155 q 132 125 127 104 q 122 84 122 75 q 122 59 129 52 q 135 45 151 45 q 197 45 250 119 q 304 194 369 350 z"},"]":{"x_min":0,"x_max":319,"ha":319,"o":"m 200 679 l 143 679 q 131 679 125 682 q 118 686 118 692 q 118 698 123 701 q 127 703 141 703 l 297 703 l 83 -153 l -75 -153 q -87 -153 -94 -150 q -100 -147 -100 -141 q -100 -134 -95 -132 q -91 -129 -77 -129 l -1 -129 z"},"U":{"x_min":0,"x_max":824,"ha":824,"o":"m 693 669 l 685 670 q 604 685 604 700 q 604 706 607 708 q 610 711 617 711 q 620 711 632 709 q 687 700 741 700 q 793 700 847 709 q 860 711 863 711 q 869 711 874 708 q 878 705 878 701 q 878 691 862 685 q 846 679 788 669 q 769 622 755 583 q 741 544 733 520 l 652 267 q 624 179 606 142 q 589 105 569 81 q 528 31 472 6 q 416 -19 345 -19 q 232 -19 165 39 q 98 96 98 192 q 98 222 105 262 q 112 302 125 344 l 224 669 l 212 671 q 117 685 117 700 q 117 706 121 708 q 125 711 134 711 q 137 711 151 709 q 221 700 291 700 q 352 700 417 709 q 434 711 438 711 q 446 711 451 708 q 456 705 456 701 q 456 690 432 684 q 408 677 338 669 l 228 316 q 209 257 203 226 q 197 195 197 167 q 197 90 238 51 q 279 12 359 12 q 505 12 575 141 q 646 270 693 669 z"},"o":{"x_min":0,"x_max":481,"ha":481,"o":"m 159 15 q 194 15 221 29 q 248 42 262 67 q 288 112 307 177 q 326 242 326 282 q 326 309 307 323 q 288 338 253 338 q 211 338 183 323 q 155 309 139 280 q 112 229 95 173 q 79 116 79 79 q 79 46 98 31 q 117 15 159 15 z m 135 -14 q 63 -14 22 20 q -20 54 -20 112 q -20 208 67 285 q 153 363 267 363 q 339 363 381 328 q 423 293 423 232 q 423 194 398 146 q 373 98 333 64 q 291 28 238 7 q 184 -14 135 -14 z"},"N":{"x_min":0,"x_max":829,"ha":829,"o":"m 180 339 q 156 241 145 169 q 134 97 132 35 q 205 28 228 21 q 251 15 251 4 q 251 -2 248 -4 q 245 -7 236 -7 q 232 -7 217 -5 q 155 3 100 3 q 44 3 -16 -5 q -31 -7 -35 -7 q -42 -7 -46 -4 q -50 -2 -50 2 q -50 12 -31 19 q -12 26 48 35 q 84 122 115 214 q 145 306 168 398 l 214 583 q 186 643 145 671 q 105 699 105 700 q 105 706 109 708 q 112 711 122 711 q 125 711 134 709 q 183 703 232 703 q 237 703 248 704 q 258 704 264 704 l 607 133 l 660 365 q 685 474 696 546 q 708 619 708 670 q 640 676 615 683 q 590 689 590 701 q 590 707 593 709 q 596 712 604 712 q 608 712 623 710 q 684 701 740 701 q 795 701 856 710 q 871 712 875 712 q 882 712 886 709 q 890 706 890 702 q 890 692 873 686 q 855 680 792 670 q 755 582 725 490 q 695 397 673 306 l 597 -14 q 596 -20 593 -23 q 590 -27 587 -27 q 584 -27 582 -25 q 579 -22 576 -18 l 233 557 z"},"+":{"x_min":0,"x_max":833,"ha":833,"o":"m 382 596 l 451 596 l 451 332 l 709 332 l 709 264 l 451 264 l 451 0 l 382 0 l 382 264 l 124 264 l 124 332 l 382 332 z"},"G":{"x_min":0,"x_max":817,"ha":817,"o":"m 672 81 q 620 72 547 35 q 529 26 521 22 q 474 0 434 -10 q 394 -19 348 -19 q 207 -19 123 61 q 39 142 39 277 q 39 369 77 453 q 115 537 186 602 q 252 662 331 692 q 409 722 500 722 q 561 722 621 711 q 682 700 747 678 l 769 723 q 780 747 786 754 q 791 761 796 761 q 799 761 801 758 q 803 756 803 753 q 803 751 781 693 q 758 635 740 573 q 731 541 722 499 q 714 459 705 459 q 701 459 698 462 q 696 466 696 472 q 696 475 697 483 q 698 491 700 501 l 712 583 q 663 636 601 666 q 539 695 475 695 q 412 695 359 668 q 306 641 263 587 q 215 527 188 443 q 161 359 161 271 q 161 157 226 85 q 291 14 394 14 q 498 14 544 76 q 591 137 612 322 q 543 329 521 335 q 499 342 499 353 q 499 359 502 361 q 505 364 513 364 q 516 364 529 362 q 588 354 646 354 q 701 354 760 362 q 774 364 778 364 q 785 364 789 361 q 793 359 793 355 q 793 342 727 324 l 718 322 q 695 245 683 189 q 671 134 671 106 q 671 96 671 91 q 671 86 672 81 z"},"q":{"x_min":0,"x_max":492,"ha":492,"o":"m 440 353 l 316 -108 q 312 -119 311 -128 q 309 -137 309 -141 q 309 -150 312 -155 q 316 -159 323 -159 q 334 -159 354 -136 q 374 -114 380 -114 q 384 -114 386 -116 q 388 -119 388 -123 q 388 -145 340 -188 q 292 -231 249 -231 q 224 -231 214 -223 q 205 -214 205 -193 q 205 -185 207 -172 q 209 -160 215 -139 l 283 120 q 237 50 188 18 q 139 -15 81 -15 q 30 -15 1 14 q -28 44 -28 97 q -28 144 -1 189 q 25 235 75 274 q 131 318 194 341 q 257 364 323 364 q 343 364 369 362 q 394 359 440 353 z m 329 303 q 292 310 268 313 q 245 316 230 316 q 193 316 169 304 q 145 293 125 267 q 103 237 90 193 q 76 148 76 104 q 76 72 93 53 q 109 34 137 34 q 194 34 250 110 q 306 186 329 303 z"},"d":{"x_min":0,"x_max":542,"ha":542,"o":"m 444 721 q 448 736 450 750 q 452 763 452 768 q 452 775 449 779 q 446 784 441 784 q 429 784 406 748 q 382 712 375 712 q 371 712 369 714 q 367 717 367 722 q 367 729 377 747 q 387 765 402 785 q 430 821 455 837 q 479 852 509 852 q 530 852 543 840 q 555 828 555 807 q 555 793 545 753 q 543 744 542 739 l 384 113 q 379 93 376 78 q 373 63 373 56 q 373 45 375 40 q 378 35 383 35 q 398 35 424 62 q 449 89 455 89 q 458 89 460 87 q 462 85 462 83 q 462 64 417 25 q 372 -14 330 -14 q 306 -14 292 -2 q 279 11 279 33 q 279 63 284 92 q 290 120 301 148 q 245 66 190 26 q 136 -14 81 -14 q 30 -14 3 11 q -24 37 -24 85 q -24 125 -6 162 q 11 200 50 243 q 103 301 155 332 q 206 362 252 362 q 272 362 296 356 q 320 351 349 339 z m 334 279 q 265 299 239 305 q 213 311 200 311 q 171 311 154 301 q 137 291 122 264 q 105 235 92 186 q 79 136 79 106 q 79 75 94 59 q 110 43 139 43 q 193 43 245 106 q 298 169 334 279 z"},"1":{"x_min":0,"x_max":593,"ha":593,"o":"m 308 192 q 298 155 288 115 q 278 76 269 34 l 275 33 q 376 20 376 4 q 376 -2 372 -4 q 369 -7 360 -7 q 357 -7 344 -5 q 277 3 212 3 q 148 3 83 -5 q 68 -7 65 -7 q 58 -7 53 -4 q 48 -1 48 2 q 48 12 71 19 q 93 26 160 34 q 175 78 188 121 q 200 165 211 207 l 319 620 l 313 620 q 252 615 241 615 q 198 615 187 618 q 175 621 175 628 q 175 633 180 636 q 186 639 195 639 q 196 639 199 639 q 203 638 205 638 q 291 638 407 685 q 430 694 434 694 q 437 694 438 691 q 440 688 440 683 q 437 673 432 653 z"},"5":{"x_min":0,"x_max":583,"ha":583,"o":"m 235 606 q 217 564 200 522 q 183 480 166 436 q 201 444 237 448 q 274 452 316 452 q 411 452 458 412 q 506 372 506 292 q 506 231 479 174 q 451 117 400 72 q 351 29 289 5 q 228 -19 167 -19 q 89 -19 46 10 q 3 40 3 93 q 3 135 27 184 q 50 233 64 233 q 66 233 69 231 q 71 229 71 227 q 71 225 61 201 q 52 177 52 159 q 52 113 107 81 q 162 49 245 49 q 337 49 393 97 q 448 146 448 225 q 448 284 402 318 q 356 351 275 351 q 188 351 102 318 q 88 313 86 313 q 83 313 80 314 q 78 316 78 318 q 78 320 91 346 q 171 502 236 692 q 336 668 388 659 q 440 651 480 651 q 526 651 547 662 q 568 673 580 703 q 581 706 583 711 q 590 729 597 729 q 600 729 602 727 q 604 725 604 722 q 604 713 597 690 q 591 667 580 641 q 559 592 541 578 q 522 565 485 565 q 443 565 377 576 q 312 586 235 606 z"}}}
